<svg xmlns="http://www.w3.org/2000/svg" viewBox="0 0 228 49" xmlns:xlink="http://www.w3.org/1999/xlink">
  <defs>
    <path id="a" d="M0 0h53v56H0z"/>
    <path id="d" d="M37.6 27.8c5.66 0 10.27 4.6 10.27 10.26v24.86H27.3V38.06c0-5.67 4.6-10.27 10.3-10.27z"/>
    <filter id="c" width="168.1%" height="139.8%" x="-34.1%" y="-14.2%" filterUnits="objectBoundingBox">
      <feOffset dy="2" in="SourceAlpha" result="shadowOffsetOuter1"/>
      <feGaussianBlur stdDeviation="2" in="shadowOffsetOuter1" result="shadowBlurOuter1"/>
      <feColorMatrix values="0 0 0 0 0 0 0 0 0 0 0 0 0 0 0 0 0 0 0.5 0" in="shadowBlurOuter1"/>
    </filter>
    <path id="f" d="M10.28 27.8c5.67 0 10.28 4.6 10.28 10.26v24.86H0V38.06C0 32.4 4.6 27.8 10.28 27.8z"/>
    <filter id="e" width="168.1%" height="139.8%" x="-34.1%" y="-14.2%" filterUnits="objectBoundingBox">
      <feOffset dy="2" in="SourceAlpha" result="shadowOffsetOuter1"/>
      <feGaussianBlur stdDeviation="2" in="shadowOffsetOuter1" result="shadowBlurOuter1"/>
      <feColorMatrix values="0 0 0 0 0 0 0 0 0 0 0 0 0 0 0 0 0 0 0.5 0" in="shadowBlurOuter1"/>
    </filter>
    <path id="h" d="M24.06 2.34c6.5 0 11.78 5.27 11.78 11.78V28.2c0 6.5-5.28 11.77-11.78 11.77-6.5 0-11.78-5.28-11.78-11.78V14.1c0-6.5 5.27-11.78 11.78-11.78z"/>
    <filter id="g" width="184.9%" height="153.2%" x="-42.4%" y="-21.3%" filterUnits="objectBoundingBox">
      <feOffset dy="2" in="SourceAlpha" result="shadowOffsetOuter1"/>
      <feGaussianBlur stdDeviation="3" in="shadowOffsetOuter1" result="shadowBlurOuter1"/>
      <feColorMatrix values="0 0 0 0 0 0 0 0 0 0 0 0 0 0 0 0 0 0 0.5 0" in="shadowBlurOuter1"/>
    </filter>
    <filter id="i" width="200%" height="207.7%" x="-50%" y="-38.5%" filterUnits="objectBoundingBox">
      <feOffset dy="2" in="SourceAlpha" result="shadowOffsetOuter1"/>
      <feGaussianBlur stdDeviation="2" in="shadowOffsetOuter1" result="shadowBlurOuter1"/>
      <feColorMatrix values="0 0 0 0 0 0 0 0 0 0 0 0 0 0 0 0 0 0 0.5 0" in="shadowBlurOuter1" result="shadowMatrixOuter1"/>
      <feMerge>
        <feMergeNode in="shadowMatrixOuter1"/>
        <feMergeNode in="SourceGraphic"/>
      </feMerge>
    </filter>
    <filter id="j" width="200%" height="207.7%" x="-50%" y="-38.5%" filterUnits="objectBoundingBox">
      <feOffset dy="2" in="SourceAlpha" result="shadowOffsetOuter1"/>
      <feGaussianBlur stdDeviation="2" in="shadowOffsetOuter1" result="shadowBlurOuter1"/>
      <feColorMatrix values="0 0 0 0 0 0 0 0 0 0 0 0 0 0 0 0 0 0 0.5 0" in="shadowBlurOuter1" result="shadowMatrixOuter1"/>
      <feMerge>
        <feMergeNode in="shadowMatrixOuter1"/>
        <feMergeNode in="SourceGraphic"/>
      </feMerge>
    </filter>
  </defs>
  <g fill="none" fill-rule="evenodd">
    <text fill="#FFF" font-family="ProximaNova-Regular, Proxima Nova" font-size="30" transform="translate(0 -7)">
      <tspan x="69" y="34">Sales</tspan> <tspan x="139.98" y="34" font-family="ProximaNova-Black, Proxima Nova" font-weight="700">buddy</tspan>
    </text>
    <g transform="translate(0 -7)">
      <mask id="b" fill="#fff">
        <use xlink:href="#a"/>
      </mask>
      <g transform="translate(3 9)" mask="url(#b)">
        <g fill="#FFF" transform="translate(8.828)">
          <ellipse cx="5.96" cy="5.89" rx="5.96" ry="5.89"/>
          <ellipse cx="25.82" cy="5.89" rx="5.96" ry="5.89"/>
        </g>
        <use fill="#000" filter="url(#c)" xlink:href="#d"/>
        <use fill="#70C5FD" xlink:href="#d"/>
        <use fill="#000" filter="url(#e)" xlink:href="#f"/>
        <use fill="#70C5FD" xlink:href="#f"/>
        <path fill="#F8E71C" d="M10.34 27.65h27.28v35.13H10.34z"/>
        <use fill="#000" filter="url(#g)" xlink:href="#h"/>
        <use fill="#FFF" xlink:href="#h"/>
        <path fill="#70C5FD" d="M12.3 27.65h-1.96v35.13h27.3V27.65h-1.77v.54c0 6.5-5.27 11.75-11.78 11.75-6.5 0-11.8-5.28-11.8-11.78v-.55z"/>
        <g fill="#4A4A4A">
          <path d="M6.55 12.94c-1.8 0-3.45-.72-4.63-1.9C.72 9.88 0 8.27 0 6.48 0 2.9 2.93 0 6.55 0c3.62 0 6.55 2.9 6.55 6.47s-2.93 6.47-6.55 6.47zm0-1.3c2.9 0 5.24-2.3 5.24-5.17 0-2.86-2.37-5.18-5.27-5.18S1.3 3.6 1.3 6.44c0 2.86 2.36 5.18 5.25 5.18z" filter="url(#i)" transform="translate(23.874 9.216)"/>
          <path d="M6.55 12.94C2.93 12.94 0 10.04 0 6.47S2.93 0 6.55 0c3.62 0 6.55 2.9 6.55 6.47s-2.93 6.47-6.55 6.47zm0-1.3c2.9 0 5.24-2.3 5.24-5.17 0-2.86-2.37-5.18-5.27-5.18S1.3 3.6 1.3 6.44c0 2.86 2.36 5.18 5.25 5.18z" filter="url(#j)" transform="translate(10.897 9.216)"/>
        </g>
        <path fill="#FFF" d="M0 42.92h10.28v19.85H0zm37.52 0H47.8v19.85H37.52z"/>
        <path fill="#4A4A4A" d="M24.2 28.4c2.17 0 3.93-1.75 3.93-3.92h-7.85c0 2.17 1.75 3.92 3.92 3.92z"/>
        <path fill="#FFF" d="M24.25 27.07c1.5 0 2.73-1.22 2.73-2.72h-5.46c0 1.5 1.22 2.72 2.73 2.72z"/>
        <ellipse cx="27.64" cy="16.28" fill="#4A4A4A" rx="1.71" ry="1.7"/>
        <ellipse cx="20.05" cy="16.28" fill="#4A4A4A" rx="1.71" ry="1.7"/>
      </g>
    </g>
  </g>
</svg>